<?xml version="1.0" encoding="UTF-8" standalone="no"?>
<!DOCTYPE svg PUBLIC "-//W3C//DTD SVG 1.1//EN" "http://www.w3.org/Graphics/SVG/1.1/DTD/svg11.dtd">
<svg width="100%" height="100%" viewBox="0 0 3508 2481" version="1.1" xmlns="http://www.w3.org/2000/svg" xmlns:xlink="http://www.w3.org/1999/xlink" xml:space="preserve" xmlns:serif="http://www.serif.com/" style="fill-rule:evenodd;clip-rule:evenodd;stroke-linejoin:round;stroke-miterlimit:1.5;">
    <g transform="matrix(1,0,0,1,-14188.3,-2759.8)">
        <g id="IconVersion" transform="matrix(1,0,0,1,14188.3,2759.8)">
            <rect x="0" y="0" width="3507.87" height="2480.32" style="fill:none;"/>
            <g transform="matrix(1,0,0,1,-697.42,138.494)">
                <g transform="matrix(0.983189,0,0,0.989915,-13915.9,-2732.69)">
                    <circle cx="16647.1" cy="3873.42" r="547.477" style="fill:rgb(15,28,52);"/>
                </g>
                <g transform="matrix(0.170993,0,0,0.170993,2226.44,795.494)">
                    <path d="M1389.78,1727.51C1201.08,1631.36 1071.71,1435.2 1071.71,1209.06C1071.71,888.139 1332.26,627.589 1653.18,627.589C1953.82,627.589 2201.47,856.229 2231.59,1148.96" style="fill:rgb(28,200,138);stroke:white;stroke-width:295.73px;"/>
                </g>
                <g transform="matrix(0.606802,0,0,0.606802,-4239.92,349.133)">
                    <path d="M10987.2,1820.28C10946.3,1744.63 10923.1,1658.07 10923.1,1566.13C10923.1,1270.61 11163,1030.68 11458.5,1030.68C11498.3,1030.68 11537.1,1035.03 11574.3,1043.26C11596.5,1104.77 11608.6,1171.06 11608.6,1240.16C11608.6,1561.08 11348,1821.63 11027.1,1821.63C11013.7,1821.63 11000.4,1821.18 10987.2,1820.28Z" style="fill:rgb(28,200,138);"/>
                </g>
                <g transform="matrix(0.606802,0,0,0.606802,-4239.92,349.133)">
                    <path d="M10987.2,1820.28C10946.3,1744.65 10923.1,1658.08 10923.1,1566.13C10923.1,1270.61 11163,1030.68 11458.5,1030.68C11498.3,1030.68 11537,1035.02 11574.3,1043.26L11574.4,1043.35C11596.5,1104.83 11608.6,1171.09 11608.6,1240.16C11608.6,1561.08 11348,1821.63 11027.1,1821.63C10706.2,1821.63 10445.6,1561.08 10445.6,1240.16C10445.6,919.233 10706.2,658.683 11027.1,658.683C11065.4,658.683 11102.9,662.398 11139.2,669.489" style="fill:none;stroke:white;stroke-width:83.33px;"/>
                </g>
                <g transform="matrix(0.0399198,0,0,0.0399198,2569.04,1033.22)">
                    <circle cx="1653.18" cy="1209.06" r="581.475" style="fill:white;stroke:white;stroke-width:380.01px;stroke-linecap:round;"/>
                </g>
            </g>
        </g>
    </g>
</svg>
